<svg width="40" height="41" viewBox="0 0 40 41" fill="none" xmlns="http://www.w3.org/2000/svg">
<path d="M7.5 18C7.5 16.3431 8.84315 15 10.5 15H29.5C31.1569 15 32.5 16.3431 32.5 18V32H7.5V18Z" fill="white"/>
<path d="M29.5 16H10.5C8.84315 16 7.5 17.3431 7.5 19V19.9289C7.5 21.255 8.02678 22.5268 8.96447 23.4645L9.10133 23.6013C10.1822 24.6822 11.9031 24.7776 13.0967 23.8226L13.9137 23.169C15.1014 22.2189 16.8137 22.3137 17.8892 23.3892C19.055 24.555 20.945 24.555 22.1108 23.3892C23.1863 22.3137 24.8986 22.2189 26.0863 23.169L26.9033 23.8226C28.0969 24.7776 29.8178 24.6822 30.8987 23.6013L31.0355 23.4645C31.9732 22.5268 32.5 21.255 32.5 19.9289V19C32.5 17.3431 31.1569 16 29.5 16Z" fill="#FFDECB"/>
<rect x="7" y="25.5" width="25" height="3" fill="#FFA284"/>
<path d="M29.5 15H10.5C8.84315 15 7.5 16.3431 7.5 18V18.4289C7.5 19.755 8.02678 21.0268 8.96447 21.9645L9.10133 22.1013C10.1822 23.1822 11.9031 23.2776 13.0967 22.3226L13.9137 21.669C15.1014 20.7189 16.8137 20.8137 17.8892 21.8892C19.055 23.055 20.945 23.055 22.1108 21.8892C23.1863 20.8137 24.8986 20.7189 26.0863 21.669L26.9033 22.3226C28.0969 23.2776 29.8178 23.1822 30.8987 22.1013L31.0355 21.9645C31.9732 21.0268 32.5 19.755 32.5 18.4289V18C32.5 16.3431 31.1569 15 29.5 15Z" fill="white"/>
<path fill-rule="evenodd" clip-rule="evenodd" d="M7.5364 17.5312C7.67037 18.6354 8.16989 19.6698 8.96447 20.4644L9.10133 20.6013C10.1822 21.6822 11.9031 21.7775 13.0967 20.8226L13.9137 20.169C15.1014 19.2188 16.8137 19.3136 17.8892 20.3892C19.055 21.5549 20.945 21.5549 22.1108 20.3892C23.1863 19.3136 24.8986 19.2188 26.0863 20.169L26.9033 20.8226C28.0969 21.7775 29.8178 21.6822 30.8987 20.6013L31.0355 20.4644C31.8301 19.6698 32.3296 18.6354 32.4636 17.5313C32.4876 17.684 32.5 17.8405 32.5 18V18.4289C32.5 19.755 31.9732 21.0267 31.0355 21.9644L30.8987 22.1013C29.8178 23.1822 28.0969 23.2775 26.9033 22.3226L26.0863 21.669C24.8986 20.7188 23.1863 20.8136 22.1108 21.8892C20.945 23.0549 19.055 23.0549 17.8892 21.8892C16.8137 20.8136 15.1014 20.7188 13.9137 21.669L13.0967 22.3226C11.9031 23.2775 10.1822 23.1822 9.10133 22.1013L8.96447 21.9644C8.02678 21.0267 7.5 19.755 7.5 18.4289V18C7.5 17.8405 7.51244 17.684 7.5364 17.5312Z" fill="#FFDECB"/>
<path fill-rule="evenodd" clip-rule="evenodd" d="M10.5 15H29.5C31.1569 15 32.5 16.3431 32.5 18V18.9289C32.5 18.9422 32.4999 18.9555 32.4998 18.9688C32.4831 17.3263 31.1464 16 29.5 16H10.5C8.85356 16 7.51689 17.3263 7.50016 18.9688C7.50005 18.9555 7.5 18.9422 7.5 18.9289V18C7.5 16.3431 8.84315 15 10.5 15Z" fill="white"/>
<path d="M7.5 18C7.5 16.3431 8.84315 15 10.5 15H29.5C31.1569 15 32.5 16.3431 32.5 18V32H7.5V18Z" stroke="#362929"/>
<path d="M29.5 15H10.5C8.84315 15 7.5 16.3431 7.5 18V18.4289C7.5 19.755 8.02678 21.0268 8.96447 21.9645L9.10133 22.1013C10.1822 23.1822 11.9031 23.2776 13.0967 22.3226L13.9137 21.669C15.1014 20.7189 16.8137 20.8137 17.8892 21.8892C19.055 23.055 20.945 23.055 22.1108 21.8892C23.1863 20.8137 24.8986 20.7189 26.0863 21.669L26.9033 22.3226C28.0969 23.2776 29.8178 23.1822 30.8987 22.1013L31.0355 21.9645C31.9732 21.0268 32.5 19.755 32.5 18.4289V18C32.5 16.3431 31.1569 15 29.5 15Z" stroke="#362929"/>
<rect x="5" y="32" width="30" height="3" rx="1.5" fill="#FFDECB"/>
<path fill-rule="evenodd" clip-rule="evenodd" d="M5.20067 32.75C5.07305 32.9706 5 33.2268 5 33.5C5 34.3284 5.67157 35 6.5 35H33.5C34.3284 35 35 34.3284 35 33.5C35 33.2268 34.927 32.9706 34.7993 32.75C34.54 33.1984 34.0552 33.5 33.5 33.5H6.5C5.94479 33.5 5.46003 33.1984 5.20067 32.75Z" fill="#FFA284"/>
<rect x="5" y="32" width="30" height="3" rx="1.5" stroke="#362929"/>
<rect x="19" y="9" width="2" height="6" fill="#FFDECB" stroke="#362929" stroke-linejoin="round"/>
<path d="M18.5 6.36916V6.41886C18.5 7.06451 18.9131 7.63771 19.5257 7.84189C19.8336 7.94452 20.1664 7.94452 20.4743 7.84189C21.0869 7.63771 21.5 7.06451 21.5 6.41886V6.36916C21.5 5.80043 21.3454 5.24239 21.0528 4.7547L20 3L18.9472 4.75471C18.6546 5.24239 18.5 5.80043 18.5 6.36916Z" fill="#FFA284"/>
<path d="M19.5 6.32868V6.46148C19.5 6.66594 19.6245 6.84979 19.8143 6.92572C19.9335 6.9734 20.0665 6.9734 20.1857 6.92572C20.3755 6.84979 20.5 6.66594 20.5 6.46148V6.32868C20.5 6.11253 20.4497 5.89935 20.353 5.70602L20 5L19.647 5.70602C19.5503 5.89935 19.5 6.11253 19.5 6.32868Z" fill="#FFDECB"/>
<rect x="13" y="11" width="2" height="4" fill="#FFDECB" stroke="#362929" stroke-linejoin="round"/>
<path d="M13 8.15736V8.42297C13 8.83187 13.249 9.19958 13.6286 9.35144C13.867 9.44681 14.133 9.44681 14.3714 9.35144C14.751 9.19958 15 8.83187 15 8.42297V8.15736C15 7.72506 14.8993 7.2987 14.706 6.91204L14 5.5L13.294 6.91204C13.1007 7.2987 13 7.72506 13 8.15736Z" fill="#FFA284"/>
<rect x="25" y="11" width="2" height="4" fill="#FFDECB" stroke="#362929" stroke-linejoin="round"/>
<path d="M25 8.15736V8.42297C25 8.83187 25.249 9.19958 25.6286 9.35144C25.867 9.44681 26.133 9.44681 26.3714 9.35144C26.751 9.19958 27 8.83187 27 8.42297V8.15736C27 7.72506 26.8993 7.2987 26.706 6.91204L26 5.5L25.294 6.91204C25.1007 7.2987 25 7.72506 25 8.15736Z" fill="#FFA284"/>
</svg>
