<svg width="16" height="16" viewBox="0 0 16 16" fill="none" xmlns="http://www.w3.org/2000/svg">
    <path fill-rule="evenodd" clip-rule="evenodd" d="M8.47633 14.8452C8.17445 14.7041 7.82555 14.7041 7.52367 14.8452L6.64509 15.2558C6.13142 15.4959 5.51937 15.3162 5.21704 14.8365L4.69992 14.0161C4.52224 13.7342 4.22873 13.5455 3.8985 13.501L2.93739 13.3715C2.37547 13.2957 1.95774 12.8136 1.96273 12.2466L1.97126 11.2769C1.97419 10.9437 1.82926 10.6263 1.57552 10.4103L0.837029 9.7817C0.405271 9.41418 0.31449 8.78279 0.625217 8.30851L1.15669 7.4973C1.3393 7.21858 1.38895 6.87323 1.29227 6.55435L1.01087 5.62627C0.846344 5.08366 1.11133 4.50342 1.62914 4.27243L2.51482 3.87733C2.81913 3.74158 3.04761 3.4779 3.13867 3.15737L3.4037 2.22448C3.55865 1.67906 4.09528 1.3342 4.65577 1.41982L5.61445 1.56628C5.94385 1.6166 6.27861 1.51831 6.52852 1.29789L7.25583 0.656375C7.68106 0.281315 8.31894 0.281315 8.74417 0.656375L9.47148 1.29789C9.72139 1.51831 10.0561 1.6166 10.3855 1.56628L11.3442 1.41982C11.9047 1.3342 12.4413 1.67906 12.5963 2.22448L12.8613 3.15737C12.9524 3.4779 13.1809 3.74158 13.4852 3.87733L14.3709 4.27243C14.8887 4.50342 15.1537 5.08366 14.9891 5.62627L14.7077 6.55435C14.611 6.87324 14.6607 7.21858 14.8433 7.4973L15.3748 8.30851C15.6855 8.78279 15.5947 9.41418 15.163 9.7817L14.4245 10.4103C14.1707 10.6263 14.0258 10.9437 14.0287 11.2769L14.0373 12.2466C14.0423 12.8136 13.6245 13.2957 13.0626 13.3715L12.1015 13.501C11.7713 13.5455 11.4778 13.7342 11.3001 14.0161L10.783 14.8365C10.4806 15.3162 9.86858 15.4959 9.35491 15.2558L8.47633 14.8452Z" fill="#0091FF"/>
    <path d="M4.7334 8.1097L7.02973 10.406L11.2756 6.16016" stroke="white" stroke-width="1.5" stroke-linecap="round" stroke-linejoin="round"/>
</svg>
