<?xml version="1.0" standalone="no"?>
<!DOCTYPE svg PUBLIC "-//W3C//DTD SVG 20010904//EN"
 "http://www.w3.org/TR/2001/REC-SVG-20010904/DTD/svg10.dtd">
<svg version="1.0" xmlns="http://www.w3.org/2000/svg"
 width="96.000000pt" height="96.000000pt" viewBox="0 0 96.000000 96.000000"
 preserveAspectRatio="xMidYMid meet">

<g transform="translate(0.000000,96.000000) scale(0.100000,-0.100000)"
fill="#000000" stroke="none">
<path d="M337 796 c-225 -83 -252 -378 -46 -491 46 -25 68 -30 144 -33 88 -4
91 -5 145 -46 53 -41 92 -66 104 -66 3 0 6 26 6 58 l0 58 57 40 c39 27 66 56
87 94 27 48 31 65 31 130 0 86 -17 128 -71 184 -68 70 -101 80 -269 83 -109 2
-160 -1 -188 -11z m320 -182 c10 -27 -18 -34 -147 -34 -129 0 -157 7 -147 34
9 24 285 24 294 0z m-60 -150 c10 -26 -17 -34 -117 -34 -100 0 -127 8 -117 34
9 24 225 24 234 0z"/>
</g>
</svg>
